<svg xmlns="http://www.w3.org/2000/svg" width="54" height="54" viewBox="0 0 54 54">
    <g fill="none" fill-rule="evenodd">
        <rect width="53" height="53" x=".5" y=".5" stroke="#000" rx="3"/>
        <path fill="#000" d="M32.21 34.572a.636.636 0 0 0-.884 0l-2.679 2.637V17.314l2.68 2.637c.243.238.64.238.883 0l.369-.359a.599.599 0 0 0 0-.862l-4.375-4.29a.636.636 0 0 0-.884 0l-4.375 4.29a.599.599 0 0 0 0 .862l.368.36c.244.237.64.237.884 0l2.68-2.638V37.21l-2.68-2.637a.636.636 0 0 0-.884 0l-.368.36a.599.599 0 0 0 0 .86l4.375 4.291c.244.238.64.238.884 0l4.375-4.29a.599.599 0 0 0 0-.862l-.369-.359z"/>
    </g>
</svg>
