<svg xmlns="http://www.w3.org/2000/svg" width="54" height="54" viewBox="0 0 54 54">
    <g fill="none" fill-rule="evenodd" stroke="#000">
        <rect width="53" height="53" x=".5" y=".5" rx="3"/>
        <path fill="#000" d="M14.5 20.5h2v2h-2zM20.5 20.5h2v2h-2zM26.5 20.5h2v2h-2zM32.5 20.5h2v2h-2zM38.5 20.5h2v2h-2zM14.5 26.5h2v2h-2zM20.5 26.5h2v2h-2zM26.5 26.5h2v2h-2zM32.5 26.5h2v2h-2zM38.5 26.5h2v2h-2zM14.5 32.5h2v2h-2zM20.5 32.5h2v2h-2zM26.5 32.5h2v2h-2zM32.5 32.5h2v2h-2zM38.5 32.5h2v2h-2zM14.5 38.5h2v2h-2zM20.5 38.5h2v2h-2zM26.5 38.5h2v2h-2zM32.5 38.5h2v2h-2zM38.5 38.5h2v2h-2zM14.5 14.5h26v2h-26z"/>
    </g>
</svg>
