<?xml version="1.0" encoding="iso-8859-1"?>
<!-- Generator: Adobe Illustrator 19.0.0, SVG Export Plug-In . SVG Version: 6.00 Build 0)  -->
<svg version="1.1" id="Layer_1" xmlns="http://www.w3.org/2000/svg" xmlns:xlink="http://www.w3.org/1999/xlink" x="0px" y="0px"
	 viewBox="0 0 512 512" style="enable-background:new 0 0 512 512;" xml:space="preserve">
<path style="fill:#E2E2E2;" d="M512,399.961c0,8.296-6.727,15.021-15.023,15.021H15.021C6.727,414.982,0,408.257,0,399.961V112.039
	c0-8.296,6.727-15.021,15.021-15.021h481.956c8.296,0,15.023,6.725,15.023,15.021V399.961z"/>
<path style="fill:#EFEDED;" d="M496.977,97.018H134.01c-49,114.403-9.351,248.887,96.652,317.964h266.314
	c8.296,0,15.023-6.725,15.023-15.021V112.039C512,103.743,505.273,97.018,496.977,97.018z"/>
<polygon style="fill:#C93F3F;" points="512,230.964 281.036,230.964 281.036,97.018 230.962,97.018 230.962,230.964 0,230.964 
	0,281.038 230.962,281.038 230.962,414.982 281.036,414.982 281.036,281.038 512,281.038 "/>
<path style="fill:#ED4343;" d="M281.036,97.018h-50.074v133.946H115.28c2.165,17.281,6.039,34.029,11.446,50.074h104.236v133.944
	h50.074V281.038H512v-50.074H281.036V97.018z"/>
<g>
</g>
<g>
</g>
<g>
</g>
<g>
</g>
<g>
</g>
<g>
</g>
<g>
</g>
<g>
</g>
<g>
</g>
<g>
</g>
<g>
</g>
<g>
</g>
<g>
</g>
<g>
</g>
<g>
</g>
</svg>
