<svg xmlns="http://www.w3.org/2000/svg" width="31" height="12" viewBox="0 0 31 12"><defs><clipPath id="18ada"><path fill="#fff" d="M2.971 6.32a5.68 5.68 0 1 1 11.361 0 5.68 5.68 0 0 1-11.36 0z"/></clipPath><clipPath id="18adb"><path fill="#fff" d="M22.635.639a5.68 5.68 0 1 1 0 11.361 5.68 5.68 0 0 1 0-11.361z"/></clipPath></defs><g><g><g><path fill="none" stroke="#fff" stroke-miterlimit="50" stroke-width="4" d="M2.971 6.32a5.68 5.68 0 1 1 11.361 0 5.68 5.68 0 0 1-11.36 0z" clip-path="url(&quot;#18ada&quot;)"/></g><g><path fill="none" stroke="#fff" stroke-miterlimit="50" stroke-width="4" d="M22.635.639a5.68 5.68 0 1 1 0 11.361 5.68 5.68 0 0 1 0-11.361z" clip-path="url(&quot;#18adb&quot;)"/></g><g><path fill="none" stroke="#fff" stroke-miterlimit="50" stroke-width="2" d="M13.895 6.32h3.496"/></g><g><path fill="none" stroke="#fff" stroke-miterlimit="50" stroke-width="2" d="M.786 3.698l3.496 2.621"/></g><g><path fill="none" stroke="#fff" stroke-miterlimit="50" stroke-width="2" d="M30.5 3.698l-3.496 2.621"/></g></g></g></svg>