<svg xmlns="http://www.w3.org/2000/svg" width="10" height="11" viewBox="0 0 10 11">
    <path fill="#31394C" fill-rule="nonzero" d="M5 8.852a.613.613 0 0 1-.625-.602V6.875c0-.333.279-.602.625-.602s.625.269.625.602V8.25A.613.613 0 0 1 5 8.852zm5-3.696V9.97C10 10.539 9.52 11 8.929 11H1.07C.48 11 0 10.538 0 9.969V5.156c0-.57.48-1.031 1.071-1.031h.715V3.094C1.786 1.386 3.232-.004 5.009 0c1.777.004 3.205 1.414 3.205 3.124v1.001h.715c.591 0 1.071.462 1.071 1.031zM2.857 4.125h4.286V3.094C7.143 1.957 6.18 1.03 5 1.03c-1.18 0-2.143.926-2.143 2.063v1.031zM8.93 5.156H1.07V9.97H8.93V5.156z"/>
</svg>
